<svg width="154" height="154" viewBox="0 0 154 154" fill="none" xmlns="http://www.w3.org/2000/svg">
<circle cx="77" cy="77" r="73" stroke="white" stroke-width="8"/>
<mask id="path-2-outside-1_1_11" maskUnits="userSpaceOnUse" x="33" y="34" width="56" height="72" fill="black">
<rect fill="white" x="33" y="34" width="56" height="72"/>
<path d="M34.4545 105V35.1818H42.9091V69.8182H43.7273L75.0909 35.1818H86.1364L56.8182 66.6818L86.1364 105H75.9091L51.6364 72.5455L42.9091 82.3636V105H34.4545Z"/>
</mask>
<path d="M34.4545 105V35.1818H42.9091V69.8182H43.7273L75.0909 35.1818H86.1364L56.8182 66.6818L86.1364 105H75.9091L51.6364 72.5455L42.9091 82.3636V105H34.4545Z" fill="white"/>
<path d="M34.4545 105H33.4545V106H34.4545V105ZM34.4545 35.1818V34.1818H33.4545V35.1818H34.4545ZM42.9091 35.1818H43.9091V34.1818H42.9091V35.1818ZM42.9091 69.8182H41.9091V70.8182H42.9091V69.8182ZM43.7273 69.8182V70.8182H44.1708L44.4685 70.4894L43.7273 69.8182ZM75.0909 35.1818V34.1818H74.6474L74.3496 34.5106L75.0909 35.1818ZM86.1364 35.1818L86.8684 35.8631L88.4332 34.1818H86.1364V35.1818ZM56.8182 66.6818L56.0862 66.0005L55.5108 66.6187L56.024 67.2895L56.8182 66.6818ZM86.1364 105V106H88.1606L86.9306 104.392L86.1364 105ZM75.9091 105L75.1083 105.599L75.4083 106H75.9091V105ZM51.6364 72.5455L52.4372 71.9465L51.7032 70.9651L50.889 71.8811L51.6364 72.5455ZM42.9091 82.3636L42.1617 81.6993L41.9091 81.9834V82.3636H42.9091ZM42.9091 105V106H43.9091V105H42.9091ZM34.4545 105H35.4545V35.1818H34.4545H33.4545V105H34.4545ZM34.4545 35.1818V36.1818H42.9091V35.1818V34.1818H34.4545V35.1818ZM42.9091 35.1818H41.9091V69.8182H42.9091H43.9091V35.1818H42.9091ZM42.9091 69.8182V70.8182H43.7273V69.8182V68.8182H42.9091V69.8182ZM43.7273 69.8182L44.4685 70.4894L75.8322 35.853L75.0909 35.1818L74.3496 34.5106L42.986 69.147L43.7273 69.8182ZM75.0909 35.1818V36.1818H86.1364V35.1818V34.1818H75.0909V35.1818ZM86.1364 35.1818L85.4044 34.5005L56.0862 66.0005L56.8182 66.6818L57.5502 67.3631L86.8684 35.8631L86.1364 35.1818ZM56.8182 66.6818L56.024 67.2895L85.3422 105.608L86.1364 105L86.9306 104.392L57.6124 66.0742L56.8182 66.6818ZM86.1364 105V104H75.9091V105V106H86.1364V105ZM75.9091 105L76.7099 104.401L52.4372 71.9465L51.6364 72.5455L50.8356 73.1444L75.1083 105.599L75.9091 105ZM51.6364 72.5455L50.889 71.8811L42.1617 81.6993L42.9091 82.3636L43.6565 83.028L52.3838 73.2098L51.6364 72.5455ZM42.9091 82.3636H41.9091V105H42.9091H43.9091V82.3636H42.9091ZM42.9091 105V104H34.4545V105V106H42.9091V105Z" fill="white" mask="url(#path-2-outside-1_1_11)"/>
<mask id="path-4-outside-2_1_11" maskUnits="userSpaceOnUse" x="70" y="48" width="65" height="74" fill="black">
<rect fill="white" x="70" y="48" width="65" height="74"/>
<path d="M133.364 85.0909C133.364 92.4545 132.034 98.8182 129.375 104.182C126.716 109.545 123.068 113.682 118.432 116.591C113.795 119.5 108.5 120.955 102.545 120.955C96.5909 120.955 91.2955 119.5 86.6591 116.591C82.0227 113.682 78.375 109.545 75.7159 104.182C73.0568 98.8182 71.7273 92.4545 71.7273 85.0909C71.7273 77.7273 73.0568 71.3636 75.7159 66C78.375 60.6364 82.0227 56.5 86.6591 53.5909C91.2955 50.6818 96.5909 49.2273 102.545 49.2273C108.5 49.2273 113.795 50.6818 118.432 53.5909C123.068 56.5 126.716 60.6364 129.375 66C132.034 71.3636 133.364 77.7273 133.364 85.0909ZM125.182 85.0909C125.182 79.0455 124.17 73.9432 122.148 69.7841C120.148 65.625 117.432 62.4773 114 60.3409C110.591 58.2045 106.773 57.1364 102.545 57.1364C98.3182 57.1364 94.4886 58.2045 91.0568 60.3409C87.6477 62.4773 84.9318 65.625 82.9091 69.7841C80.9091 73.9432 79.9091 79.0455 79.9091 85.0909C79.9091 91.1364 80.9091 96.2386 82.9091 100.398C84.9318 104.557 87.6477 107.705 91.0568 109.841C94.4886 111.977 98.3182 113.045 102.545 113.045C106.773 113.045 110.591 111.977 114 109.841C117.432 107.705 120.148 104.557 122.148 100.398C124.17 96.2386 125.182 91.1364 125.182 85.0909Z"/>
</mask>
<path d="M133.364 85.0909C133.364 92.4545 132.034 98.8182 129.375 104.182C126.716 109.545 123.068 113.682 118.432 116.591C113.795 119.5 108.5 120.955 102.545 120.955C96.5909 120.955 91.2955 119.5 86.6591 116.591C82.0227 113.682 78.375 109.545 75.7159 104.182C73.0568 98.8182 71.7273 92.4545 71.7273 85.0909C71.7273 77.7273 73.0568 71.3636 75.7159 66C78.375 60.6364 82.0227 56.5 86.6591 53.5909C91.2955 50.6818 96.5909 49.2273 102.545 49.2273C108.5 49.2273 113.795 50.6818 118.432 53.5909C123.068 56.5 126.716 60.6364 129.375 66C132.034 71.3636 133.364 77.7273 133.364 85.0909ZM125.182 85.0909C125.182 79.0455 124.17 73.9432 122.148 69.7841C120.148 65.625 117.432 62.4773 114 60.3409C110.591 58.2045 106.773 57.1364 102.545 57.1364C98.3182 57.1364 94.4886 58.2045 91.0568 60.3409C87.6477 62.4773 84.9318 65.625 82.9091 69.7841C80.9091 73.9432 79.9091 79.0455 79.9091 85.0909C79.9091 91.1364 80.9091 96.2386 82.9091 100.398C84.9318 104.557 87.6477 107.705 91.0568 109.841C94.4886 111.977 98.3182 113.045 102.545 113.045C106.773 113.045 110.591 111.977 114 109.841C117.432 107.705 120.148 104.557 122.148 100.398C124.17 96.2386 125.182 91.1364 125.182 85.0909Z" fill="white"/>
<path d="M129.375 104.182L128.479 103.738L128.479 103.738L129.375 104.182ZM118.432 116.591L118.963 117.438L118.963 117.438L118.432 116.591ZM86.6591 116.591L86.1276 117.438L86.1276 117.438L86.6591 116.591ZM75.7159 104.182L76.6119 103.738L76.6119 103.738L75.7159 104.182ZM118.432 53.5909L118.963 52.7438L118.963 52.7438L118.432 53.5909ZM129.375 66L128.479 66.4442L128.479 66.4442L129.375 66ZM122.148 69.7841L121.247 70.2175L121.248 70.2215L122.148 69.7841ZM114 60.3409L113.469 61.1883L113.472 61.1899L114 60.3409ZM91.0568 60.3409L90.5283 59.492L90.5258 59.4935L91.0568 60.3409ZM82.9091 69.7841L82.0098 69.3467L82.0079 69.3507L82.9091 69.7841ZM82.9091 100.398L82.0079 100.831L82.0098 100.835L82.9091 100.398ZM91.0568 109.841L90.5258 110.688L90.5283 110.69L91.0568 109.841ZM114 109.841L113.472 108.992L113.469 108.994L114 109.841ZM122.148 100.398L121.248 99.9604L121.247 99.9644L122.148 100.398ZM133.364 85.0909H132.364C132.364 92.3352 131.056 98.5402 128.479 103.738L129.375 104.182L130.271 104.626C133.012 99.0962 134.364 92.5739 134.364 85.0909H133.364ZM129.375 104.182L128.479 103.738C125.894 108.952 122.366 112.942 117.9 115.744L118.432 116.591L118.963 117.438C123.771 114.422 127.538 110.139 130.271 104.626L129.375 104.182ZM118.432 116.591L117.9 115.744C113.437 118.544 108.329 119.955 102.545 119.955V120.955V121.955C108.671 121.955 114.154 120.456 118.963 117.438L118.432 116.591ZM102.545 120.955V119.955C96.7618 119.955 91.6537 118.544 87.1906 115.744L86.6591 116.591L86.1276 117.438C90.9372 120.456 96.4201 121.955 102.545 121.955V120.955ZM86.6591 116.591L87.1906 115.744C82.7251 112.942 79.1969 108.952 76.6119 103.738L75.7159 104.182L74.82 104.626C77.5531 110.139 81.3204 114.422 86.1276 117.438L86.6591 116.591ZM75.7159 104.182L76.6119 103.738C74.0351 98.5402 72.7273 92.3352 72.7273 85.0909H71.7273H70.7273C70.7273 92.5739 72.0785 99.0962 74.82 104.626L75.7159 104.182ZM71.7273 85.0909H72.7273C72.7273 77.8466 74.0351 71.6416 76.6119 66.4442L75.7159 66L74.82 65.5558C72.0785 71.0856 70.7273 77.608 70.7273 85.0909H71.7273ZM75.7159 66L76.6119 66.4442C79.1969 61.2299 82.7251 57.2399 87.1906 54.438L86.6591 53.5909L86.1276 52.7438C81.3204 55.7601 77.5531 60.0429 74.82 65.5558L75.7159 66ZM86.6591 53.5909L87.1906 54.438C91.6537 51.6376 96.7618 50.2273 102.545 50.2273V49.2273V48.2273C96.4201 48.2273 90.9372 49.7261 86.1276 52.7438L86.6591 53.5909ZM102.545 49.2273V50.2273C108.329 50.2273 113.437 51.6376 117.9 54.438L118.432 53.5909L118.963 52.7438C114.154 49.7261 108.671 48.2273 102.545 48.2273V49.2273ZM118.432 53.5909L117.9 54.438C122.366 57.2399 125.894 61.2299 128.479 66.4442L129.375 66L130.271 65.5558C127.538 60.0429 123.771 55.7601 118.963 52.7438L118.432 53.5909ZM129.375 66L128.479 66.4442C131.056 71.6416 132.364 77.8466 132.364 85.0909H133.364H134.364C134.364 77.608 133.012 71.0856 130.271 65.5558L129.375 66ZM125.182 85.0909H126.182C126.182 78.9386 125.153 73.6773 123.047 69.3467L122.148 69.7841L121.248 70.2215C123.188 74.2091 124.182 79.1523 124.182 85.0909H125.182ZM122.148 69.7841L123.049 69.3507C120.979 65.0454 118.143 61.7423 114.528 59.492L114 60.3409L113.472 61.1899C116.72 63.2122 119.317 66.2046 121.247 70.2175L122.148 69.7841ZM114 60.3409L114.531 59.4935C110.955 57.2523 106.951 56.1364 102.545 56.1364V57.1364V58.1364C106.595 58.1364 110.227 59.1568 113.469 61.1883L114 60.3409ZM102.545 57.1364V56.1364C98.1403 56.1364 94.1262 57.2522 90.5283 59.492L91.0568 60.3409L91.5853 61.1899C94.8511 59.1568 98.496 58.1364 102.545 58.1364V57.1364ZM91.0568 60.3409L90.5258 59.4935C86.9354 61.7436 84.1019 65.0449 82.0098 69.3467L82.9091 69.7841L83.8084 70.2215C85.7617 66.2051 88.3601 63.211 91.5878 61.1883L91.0568 60.3409ZM82.9091 69.7841L82.0079 69.3507C79.926 73.6802 78.9091 78.94 78.9091 85.0909H79.9091H80.9091C80.9091 79.1509 81.8922 74.2062 83.8103 70.2175L82.9091 69.7841ZM79.9091 85.0909H78.9091C78.9091 91.2418 79.926 96.5016 82.0079 100.831L82.9091 100.398L83.8103 99.9644C81.8922 95.9756 80.9091 91.0309 80.9091 85.0909H79.9091ZM82.9091 100.398L82.0098 100.835C84.1019 105.137 86.9354 108.438 90.5258 110.688L91.0568 109.841L91.5878 108.994C88.3601 106.971 85.7617 103.977 83.8084 99.9604L82.9091 100.398ZM91.0568 109.841L90.5283 110.69C94.1262 112.93 98.1403 114.045 102.545 114.045V113.045V112.045C98.496 112.045 94.8511 111.025 91.5853 108.992L91.0568 109.841ZM102.545 113.045V114.045C106.951 114.045 110.955 112.93 114.531 110.688L114 109.841L113.469 108.994C110.227 111.025 106.595 112.045 102.545 112.045V113.045ZM114 109.841L114.528 110.69C118.143 108.44 120.979 105.136 123.049 100.831L122.148 100.398L121.247 99.9644C119.317 103.977 116.72 106.97 113.472 108.992L114 109.841ZM122.148 100.398L123.047 100.835C125.153 96.5045 126.182 91.2432 126.182 85.0909H125.182H124.182C124.182 91.0295 123.188 95.9727 121.248 99.9604L122.148 100.398Z" fill="white" mask="url(#path-4-outside-2_1_11)"/>
</svg>
